<?xml version="1.0" encoding="utf-8"?>
<!-- Generator: Adobe Illustrator 23.0.0, SVG Export Plug-In . SVG Version: 6.00 Build 0)  -->
<svg version="1.1" id="Слой_2" xmlns="http://www.w3.org/2000/svg" xmlns:xlink="http://www.w3.org/1999/xlink" x="0px" y="0px"
	 viewBox="0 0 220 55" style="enable-background:new 0 0 220 55;" xml:space="preserve">
<style type="text/css">
	.st0{fill:#C83770;}
</style>
<g>
	<g>
		<g>
			<path class="st0" d="M113.3,28.6c0.2,0.3,0.3,0.7,0.3,1.2c0,1-0.2,1.8-0.7,2.3c-1.1,1.3-2.3,2.4-3.5,3.3
				c-1.2,0.9-2.7,1.3-4.3,1.3c-1.3,0-2.4-0.5-3.3-1.4c-1.4,0.9-2.9,1.4-4.5,1.4c-0.3,4.9-1.1,8.9-2.2,12.2c-1.2,3.3-2.9,4.9-5.1,4.9
				c-1.4,0-2.4-0.5-3-1.5c-0.7-1-1-2.3-1-4.1c0-2.5,0.6-5.4,1.7-8.6c1.1-3.3,2.9-6.9,5.3-10.9c0-3.7,0-6.2-0.1-7.7
				c0-0.7,0.3-1.3,0.9-1.7c0.6-0.4,1.4-0.6,2.3-0.6c0.5,0,0.9,0.1,1.2,0.3c0.2,0.2,0.4,0.6,0.4,1.3c0,0.6,0,1.1,0,1.4
				c0.8-1,1.6-1.7,2.4-2.2c0.8-0.4,1.6-0.7,2.5-0.7c1.4,0,2.6,0.6,3.5,1.7s1.3,2.6,1.3,4.5c0,1.3-0.2,2.6-0.6,3.9
				c-0.4,1.3-1,2.4-1.8,3.4c0.5,0.2,1,0.2,1.3,0.2c0.8,0,1.6-0.3,2.4-0.9s1.7-1.6,2.9-3c0.3-0.4,0.6-0.5,1-0.5
				C112.8,28.2,113.1,28.3,113.3,28.6z M92,45.7c0.5-3,0.7-6.7,0.9-11.1c-1.1,2.5-1.9,4.9-2.6,7.2c-0.6,2.3-0.9,4.2-0.9,5.8
				c0,0.8,0.1,1.4,0.3,1.9c0.2,0.4,0.4,0.6,0.7,0.6C91,50.2,91.5,48.7,92,45.7z M100,31.7c0.8-0.8,1.4-1.8,1.8-3s0.7-2.4,0.7-3.7
				c0-0.8-0.2-1.3-0.5-1.7s-0.7-0.6-1.2-0.6c-0.9,0-2,1-3.3,2.9c0,1.1,0,2.7,0,4.9c0,1.2,0,2.1,0,2.7C98.4,33,99.3,32.5,100,31.7z"
				/>
			<path class="st0" d="M111.4,35.1c-0.9-1.1-1.4-2.6-1.4-4.5c0-2,0.5-3.9,1.4-5.7c0.9-1.8,2.2-3.3,3.7-4.4c1.6-1.1,3.2-1.6,4.9-1.6
				c0.6,0,0.9,0.1,1.1,0.3c0.2,0.2,0.3,0.6,0.5,1.2c0.5-0.1,1.1-0.2,1.7-0.2c1.2,0,1.9,0.4,1.9,1.3c0,0.5-0.2,1.8-0.6,3.8
				c-0.6,2.9-0.9,4.9-0.9,6.1c0,0.4,0.1,0.7,0.3,0.9c0.2,0.2,0.4,0.3,0.7,0.3c0.5,0,1.1-0.3,1.7-0.9c0.7-0.6,1.6-1.6,2.8-3
				c0.3-0.4,0.6-0.5,1-0.5c0.3,0,0.6,0.2,0.8,0.5s0.3,0.7,0.3,1.2c0,1-0.2,1.8-0.7,2.3c-1,1.3-2.1,2.4-3.3,3.3s-2.3,1.3-3.4,1.3
				c-0.8,0-1.6-0.3-2.3-0.9c-0.7-0.6-1.2-1.3-1.6-2.3c-1.3,2.1-3,3.2-5,3.2C113.6,36.8,112.3,36.2,111.4,35.1z M118.1,32
				c0.5-0.7,0.9-1.5,1.1-2.6l1.4-7c-1.1,0-2,0.4-2.9,1.2s-1.6,1.8-2.1,3c-0.5,1.3-0.8,2.6-0.8,4c0,0.8,0.2,1.4,0.5,1.7
				c0.3,0.4,0.8,0.6,1.3,0.6C117.1,33,117.6,32.6,118.1,32z"/>
			<path class="st0" d="M149,28.6c0.2,0.3,0.3,0.7,0.3,1.2c0,1-0.2,1.8-0.7,2.3c-1.2,1.3-2.4,2.4-3.6,3.3c-1.2,0.9-2.6,1.3-4.2,1.3
				c-1.3,0-2.2-0.4-2.8-1.2c-0.5-0.8-0.8-2-0.8-3.6c0-0.7,0.1-1.5,0.2-2.5c-2.2,0-3.8,0-4.6-0.1c-0.1,0.7-0.1,1.2-0.1,1.5v0.8
				c0,1.6-0.1,2.7-0.1,3.3c-0.1,0.6-0.2,1.1-0.5,1.4c-0.3,0.3-0.7,0.4-1.2,0.4c-1,0-1.6-0.5-2-1.5c-0.4-1-0.6-2.6-0.6-4.8
				c0-3.3,0.5-6.4,1.4-9.3c0.2-0.7,0.6-1.3,1.1-1.6c0.5-0.3,1.2-0.5,2.2-0.5c0.5,0,0.9,0.1,1.1,0.2c0.2,0.1,0.3,0.4,0.3,0.7
				c0,0.4-0.2,1.3-0.6,2.7c-0.2,0.8-0.4,1.8-0.6,3h4.8c0.3-1.2,0.6-2.7,1.1-4.5c0.2-0.8,0.5-1.3,0.9-1.6c0.4-0.3,1-0.5,1.9-0.5
				c0.6,0,1,0.1,1.2,0.2c0.2,0.1,0.3,0.4,0.3,0.8c0,0.6-0.3,2.4-0.9,5.2c-0.7,3.2-1.1,5.2-1.1,6c0,0.5,0.1,0.9,0.3,1.1
				c0.2,0.3,0.5,0.4,0.8,0.4c0.5,0,1.1-0.3,1.8-0.9c0.7-0.6,1.6-1.6,2.8-3c0.3-0.4,0.6-0.5,1-0.5C148.6,28.2,148.8,28.3,149,28.6z"
				/>
			<path class="st0" d="M176.2,28.6c0.2,0.3,0.3,0.7,0.3,1.2c0,1-0.2,1.8-0.7,2.3c-1.1,1.4-2.3,2.5-3.4,3.3
				c-1.1,0.8-2.4,1.3-3.9,1.3c-1.2,0-2.3-0.3-3.3-0.9s-1.7-1.4-2.3-2.3c-0.6-0.9-1-1.8-1.1-2.8c-0.3,2.1-0.7,3.7-1.2,4.7
				c-0.3,0.5-0.5,0.8-0.8,1c-0.3,0.2-0.6,0.3-1.2,0.3c-0.6,0-1-0.2-1.3-0.6c-0.3-0.4-0.4-1.1-0.4-2c0-0.8,0.1-1.8,0.2-3.1
				c0.2-1.2,0.4-2.4,0.6-3.6h-0.1c-0.7,2-1.4,3.6-2,4.9s-1.4,2.3-2.4,3.1c-1,0.9-2.2,1.3-3.7,1.3c-1.4,0-2.5-0.4-3.3-1.2
				c-0.8-0.8-1.2-1.9-1.2-3.2c0-1.3,0.3-2.3,0.9-3.1c0.6-0.8,1.4-1.2,2.5-1.2c0.9,0,1.4,0.3,1.4,1c0,0.2,0,0.5-0.1,0.9
				c-0.1,0.9-0.1,1.4-0.1,1.6c0,0.8,0.3,1.1,1,1.1c0.5,0,0.9-0.3,1.4-0.9s0.8-1.3,1.1-2.3s0.4-2.1,0.4-3.3c0-0.9-0.1-1.7-0.3-2.3
				c-0.2-0.6-0.5-0.9-0.8-0.9c-0.3,0-0.5,0.1-0.6,0.2s-0.3,0.4-0.4,0.7c-0.2,0.4-0.4,0.7-0.6,1c-0.3,0.2-0.7,0.4-1.3,0.4
				c-0.6,0-1-0.2-1.3-0.6c-0.3-0.4-0.5-1-0.5-1.8c0-1.3,0.4-2.3,1.2-3s1.8-1.1,3.1-1.1c1.2,0,2.2,0.5,3,1.4c0.8,0.9,1.6,2.4,2.1,4.3
				c0.2-1.8,0.4-3.1,0.6-3.8c0.2-0.7,0.6-1.1,1-1.4c0.4-0.3,1.1-0.4,1.9-0.4c0.5,0,0.9,0.1,1.1,0.2c0.2,0.2,0.3,0.4,0.3,0.8
				c0,0.4-0.2,1.2-0.6,2.6c-0.4,1.6-0.7,3.7-0.9,6.2h0.1c0.7-2.4,1.4-4.4,2.2-5.8c0.8-1.4,1.7-2.5,2.6-3.1c1-0.6,2.1-0.9,3.4-0.9
				c1.3,0,2.3,0.4,3.1,1.2c0.7,0.8,1.1,1.9,1.1,3.2c0,1.1-0.2,2-0.7,2.7c-0.5,0.7-1.1,1.1-1.8,1.1c-0.5,0-0.9-0.1-1.2-0.3
				c-0.3-0.2-0.4-0.5-0.4-0.9c0-0.2,0-0.4,0.1-0.6s0.1-0.4,0.1-0.5c0.1-0.4,0.2-0.7,0.2-1.1c0-0.7-0.3-1-1-1c-0.5,0-1,0.3-1.5,0.8
				c-0.5,0.5-0.9,1.2-1.2,2.1c-0.3,0.9-0.4,1.8-0.4,2.8c0,1.4,0.3,2.5,0.9,3.3s1.5,1.2,2.7,1.2c0.9,0,1.8-0.3,2.5-0.9s1.7-1.7,3-3.2
				c0.3-0.4,0.6-0.5,1-0.5C175.7,28.2,176,28.3,176.2,28.6z"/>
		</g>
		<path class="st0" d="M88.5,29.1c-0.2-0.8,0.6-1.6,1.1-2.3c0.4-0.6,1.2-0.9,1.6-1.5c3.6-5.1-0.3-12.9-6.9-13.9
			c-1.9-0.3-3.1-0.9-3.1-2.8c0-3.3-1.4-5.7-4.7-6.9c-3.2-1.1-5.8-0.2-8.3,1.6c-0.8,0.6-2,0.9-3,0.9c-4.8-0.3-8.6,2.7-8.9,7.3
			c-0.1,1.1-0.2,2.1-0.5,4.3c-0.3-0.3-1.3-0.8-1.4-1.2c-0.4-0.1-0.8-0.2-1.3-0.3c-0.6-0.1-1.1-0.1-1.7-0.1c-0.8,0.1-1.7,0.1-2.5,0.2
			c-0.8,0.1-1.1,0-1.6,0.5c-0.7,0.8-1.4,1.6-2,2.4c-0.9,1.4-1.7,2.9-1.8,4.6c-0.4,4.2,3,7.7,6.2,10.3c0.6,0.5,0.9,1.8,0.9,2.7
			C50.9,42.2,56.6,47,63.1,46c1.4-0.2,2.8-0.7,4.2-1.4c2.3-1.2,3.9-3.3,6.1-5.2c1.2,0.7,2.6,1.6,4.1,2.3c2.8,1.3,5.6,1.1,7.3-1
			C87.7,37.5,89.7,33.8,88.5,29.1z M80.3,37.9c-2.3-0.6-4.4-2.5-6.6-3.9c-0.3-0.2-0.3-0.8-0.6-1c-0.8-0.7-1.6-1.4-2.4-2
			c-0.6,0.9-1.2,1.7-1.6,2.7c-0.8,2-1,4.4-2.3,6.1c-1.8,2.5-5.1,2.8-8,1.9c-1.5-0.5-2.9-2.7-3.5-4.4c-0.4-1.2,0.3-2.8,1-4.1
			c1.5-2.8,0.9-4-2.6-4.3c-5.3-0.6-7.2-5.2-5.3-9.2c0.9-1.8,3-2.2,5.2-1.2c1.2,0.5,2.3,1.3,3.5,2l0,0c0.8,0.5,1.5,1.1,2.4,1.5
			c1,0.3,2.6,0.9,2.9,0.6c0.7-0.7,1.1-2,1-3c-0.2-1.3-1.1-2.5-1.8-3.7c-1.1-1.9-1.8-3.9-0.3-5.6c0.8-0.9,2-1.5,3-2.3
			c0.6,1,1.1,2,1.8,3c0.7,1,1.7,1.8,2.5,2.7c0.9-0.8,2.1-1.5,2.7-2.5c0.4-0.9,0.1-2.3,0-3.4c-0.1-1.9,1.2-2.7,2.8-2.4
			c1.1,0.2,2.8,1.6,2.8,2.3c0,2.3-0.7,4.6-1,6.9c-0.1,0.8-0.1,2.2,0.3,2.5c0.8,0.4,1.9,0.2,2.9,0.1c0.4,0,0.8-0.4,1.2-0.7
			c2.6-1.9,4.3-1.9,6.3,0.8c0.9,1.2,1.5,3.1,1.3,4.4c-0.1,0.6-2.6,0.8-4,1c-1.8,0.3-4.4-1.5-5.2,1.1c-0.8,2.5,2,2.7,3.4,3.8
			c2.2,1.6,3.1,3.9,1.6,6.6C83,35.7,81.2,38.2,80.3,37.9z"/>
		<path class="st0" d="M72.7,27.8c-0.9,2-4.5,2.1-7.8,0.5c-2.8-1.3-2-3.2-1.2-4.9c1.2-2.5,4-3.2,6.5-1.8
			C72.7,23.1,73.9,25.8,72.7,27.8z"/>
	</g>
</g>
</svg>
